#!OML:ASF H:\LiuWeirdWalks\Patient Classification 1\Patient 1\Session 1\male.ASF
:FULLY-SPECIFIED
:DEGREES
347
root 1.73567 17.3392 21.7532 1.0456 12.5072 6.8816
lowerback 4.50464 -5.31822 -13.6394
upperback -0.359329 -7.79239 0.915293
thorax -0.972073 -3.80768 8.85513
lowerneck -19.2491 2.79147 10.6413
upperneck 20.6789 2.4974 -7.51491
head 9.99092 1.12365 -4.0826
rclavicle -5.28519e-014 -9.93923e-015
rhumerus -62.4975 -34.3192 -40.7049
rradius 10.1293
rwrist 34.4224
rhand -15.6597 -3.42541
rfingers 7.12502
rthumb 10.5284 -33.1417
lclavicle -5.28519e-014 -9.93923e-015
lhumerus -21.2856 -1.62051 76.804
lradius 49.5166
lwrist 15.3511
lhand -19.4219 -4.79071
lfingers 7.12502
lthumb 6.89792 25.0769
rfemur -33.5954 -5.79023 11.9694
rtibia 34.2883
rfoot -10.9921 -19.9707
rtoes -9.7858
lfemur 22.9192 -5.38701 -25.6144
ltibia 20.249
lfoot 5.25842 1.50343
ltoes -33.9329
348
root 1.72658 17.3588 22.087 0.974866 12.5324 6.26397
lowerback 4.37396 -5.32116 -12.9849
upperback -0.560952 -7.75614 1.0272
thorax -1.19052 -3.76949 8.61554
lowerneck -19.1599 2.78448 10.7152
upperneck 21.05 2.48416 -7.49659
head 10.1065 1.13249 -4.09979
rclavicle 4.41426e-014 5.1684e-015
rhumerus -62.5421 -34.2661 -40.9231
rradius 9.95632
rwrist 34.4819
rhand -16.3661 -3.72445
rfingers 7.12502
rthumb 9.847 -33.4742
lclavicle 4.41426e-014 5.1684e-015
lhumerus -21.8643 -1.47391 76.653
lradius 49.9035
lwrist 15.5519
lhand -19.4499 -4.84352
lfingers 7.12502
lthumb 6.87085 25.025
rfemur -33.0356 -4.85463 12.5999
rtibia 34.818
rfoot -8.9384 -19.7567
rtoes -8.86413
lfemur 21.4044 -5.54178 -24.6752
ltibia 23.648
lfoot 8.36917 0.263533
ltoes -33.1722
349
root 1.7236 17.3808 22.4105 0.787821 12.4359 5.41487
lowerback 4.35173 -5.28472 -12.0128
upperback -0.720299 -7.6623 1.17273
thorax -1.47159 -3.70564 8.24684
lowerneck -19.1122 2.79746 10.8268
upperneck 21.372 2.48652 -7.50101
head 10.2154 1.14787 -4.12841
rclavicle 4.58882e-014 -1.19271e-014
rhumerus -62.5142 -34.2407 -41.1976
rradius 9.86399
rwrist 34.5753
rhand -17.0105 -3.86014
rfingers 7.12502
rthumb 9.22523 -33.6383
lclavicle 4.58882e-014 -1.19271e-014
lhumerus -22.4465 -1.27099 76.5001
lradius 50.2114
lwrist 15.6894
lhand -19.3866 -4.84349
lfingers 7.12502
lthumb 6.93193 25.023
rfemur -32.4863 -4.11177 13.5568
rtibia 35.4103
rfoot -7.04045 -19.4561
rtoes -7.69675
lfemur 19.7232 -5.60557 -23.5388
ltibia 27.259
lfoot 11.8918 -0.907499
ltoes -31.149
350
root 1.72634 17.4021 22.7247 0.469433 12.1918 4.35422
lowerback 4.46378 -5.33479 -10.9099
upperback -0.752069 -7.68193 1.39625
thorax -1.67085 -3.71404 7.89248
lowerneck -19.2159 3.04679 11.3115
upperneck 21.536 2.74949 -7.7686
head 10.3343 1.27859 -4.27495
rclavicle 2.26739e-014 9.54166e-015
rhumerus -61.8579 -34.15 -42.0257
rradius 9.77837
rwrist 34.6693
rhand -17.5611 -3.86275
rfingers 7.12502
rthumb 8.69393 -33.6637
lclavicle 2.26739e-014 9.54166e-015
lhumerus -23.021 -0.604945 76.1471
lradius 50.4906
lwrist 15.804
lhand -19.2708 -4.78557
lfingers 7.12502
lthumb 7.04379 25.0772
rfemur -31.9055 -3.59428 14.8348
rtibia 36.1187
rfoot -5.61232 -19.0411
rtoes -6.38185
lfemur 17.9126 -5.556 -22.2272
ltibia 31.1184
lfoot 15.6922 -2.02907
ltoes -27.468
351
root 1.73237 17.4203 23.0294 0.0648383 11.7886 3.18532
lowerback 4.60012 -5.31298 -9.669
upperback -0.691552 -7.59128 1.64461
thorax -1.82316 -3.67695 7.48295
lowerneck -19.2919 3.27167 11.7783
upperneck 21.4946 2.99156 -8.08711
head 10.3741 1.3894 -4.43455
rclavicle -2.06829e-014 1.82882e-014
rhumerus -61.1105 -34.1636 -42.8562
rradius 9.80367
rwrist 34.645
rhand -17.8537 -3.77098
rfingers 7.12502
rthumb 8.41155 -33.5835
lclavicle -2.06829e-014 1.82882e-014
lhumerus -23.5505 0.0436284 75.862
lradius 50.7348
lwrist 15.9826
lhand -19.1688 -4.68866
lfingers 7.12502
lthumb 7.1422 25.1708
rfemur -31.2294 -3.24633 16.3165
rtibia 36.819
rfoot -4.73461 -18.5972
rtoes -4.98258
lfemur 16.0495 -5.37249 -20.8311
ltibia 35.0473
lfoot 19.4055 -3.01643
ltoes -23.0232
352
root 1.74197 17.4348 23.3281 -0.397071 11.3039 2.09739
lowerback 4.83032 -5.26086 -8.5209
upperback -0.585477 -7.46807 1.88668
thorax -1.97383 -3.62467 7.12252
lowerneck -19.328 3.50409 12.2749
upperneck 21.3179 3.25352 -8.4835
head 10.3638 1.50111 -4.6211
rclavicle 9.36555e-014 -1.23246e-014
rhumerus -60.2543 -34.1874 -43.6964
rradius 9.91061
rwrist 34.5624
rhand -17.9216 -3.55368
rfingers 7.12502
rthumb 8.34599 -33.3688
lclavicle 9.36555e-014 -1.23246e-014
lhumerus -24.1297 0.704596 75.6297
lradius 50.9433
lwrist 16.2293
lhand -19.1106 -4.58438
lfingers 7.12502
lthumb 7.19843 25.2732
rfemur -30.3857 -3.14313 17.7749
rtibia 37.4718
rfoot -4.38192 -18.1087
rtoes -3.60241
lfemur 14.2069 -5.1119 -19.5589
ltibia 38.9646
lfoot 22.7529 -3.75323
ltoes -18.2289
353
root 1.74926 17.4482 23.6234 -0.880177 10.7478 1.10403
lowerback 5.04795 -5.1261 -7.50166
upperback -0.433258 -7.23466 2.1139
thorax -2.07167 -3.51996 6.8076
lowerneck -19.3043 3.65441 12.6622
upperneck 21.0525 3.42489 -8.83292
head 10.2984 1.5673 -4.78244
rclavicle 1.28589e-014 -2.38542e-015
rhumerus -59.4638 -34.3264 -44.3765
rradius 10.1101
rwrist 34.4412
rhand -17.7694 -3.22319
rfingers 7.12502
rthumb 8.49286 -33.0324
lclavicle 1.28589e-014 -2.38542e-015
lhumerus -24.6909 1.19539 75.5312
lradius 51.0965
lwrist 16.5569
lhand -19.1025 -4.41981
lfingers 7.12502
lthumb 7.20618 25.4375
rfemur -29.3985 -3.0483 19.1568
rtibia 38.0339
rfoot -4.41674 -17.7363
rtoes -2.24504
lfemur 12.3764 -4.75481 -18.377
ltibia 42.8059
lfoot 25.3319 -4.19743
ltoes -14.0848
354
root 1.75428 17.4625 23.9178 -1.36412 10.2296 0.272332
lowerback 5.24051 -4.91228 -6.65934
upperback -0.266519 -6.90154 2.31056
thorax -2.13442 -3.36487 6.54796
lowerneck -19.2231 3.68019 12.8575
upperneck 20.7968 3.45635 -9.05714
head 10.203 1.56932 -4.88573
rclavicle 2.81529e-014 9.54166e-015
rhumerus -57.4838 -33.3195 -47.2317
rradius 10.4271
rwrist 31.9294
rhand -17.5844 -3.1819
rfingers 7.12502
rthumb 8.6714 -32.9838
lclavicle 2.81529e-014 9.54166e-015
lhumerus -25.229 1.42752 75.6274
lradius 51.1566
lwrist 16.944
lhand -19.1512 -4.2675
lfingers 7.12502
lthumb 7.15916 25.5914
rfemur -28.2569 -2.97048 20.3521
rtibia 38.4776
rfoot -4.75714 -17.5215
rtoes -0.995911
lfemur 10.5829 -4.37707 -17.3576
ltibia 46.5083
lfoot 26.8621 -4.30955
ltoes -10.9673
355
root 1.75737 17.4795 24.2132 -1.81488 9.81764 -0.400023
lowerback 5.37468 -4.6589 -6.00181
upperback -0.120893 -6.52268 2.48328
thorax -2.16964 -3.18487 6.35522
lowerneck -19.0566 3.58417 12.8473
upperneck 20.5935 3.3502 -9.10858
head 10.0858 1.51383 -4.91173
rclavicle -7.7495e-015 -9.93923e-015
rhumerus -55.6311 -32.2213 -49.9267
rradius 10.7969
rwrist 29.3656
rhand -17.3575 -3.06151
rfingers 7.12502
rthumb 8.89033 -32.8542
lclavicle -7.7495e-015 -9.93923e-015
lhumerus -25.7676 1.4338 75.8943
lradius 51.0997
lwrist 17.3231
lhand -19.2198 -4.03204
lfingers 7.12502
lthumb 7.09295 25.8291
rfemur -26.9838 -2.91896 21.3437
rtibia 38.772
rfoot -5.30233 -17.433
rtoes 0.104701
lfemur 8.7925 -4.03124 -16.5052
ltibia 50.038
lfoot 27.1818 -4.05464
ltoes -8.95266
356
root 1.75687 17.5009 24.5097 -2.21064 9.51835 -1.04038
lowerback 5.3993 -4.43162 -5.47646
upperback 0.0351027 -6.18023 2.684
thorax -2.1052 -3.0256 6.2519
lowerneck -18.9217 3.46422 12.7597
upperneck 20.481 3.2072 -9.05189
head 9.9996 1.44823 -4.89272
rclavicle 1.24271e-014 2.42517e-014
rhumerus -53.7571 -31.0592 -52.534
rradius 11.1919
rwrist 26.8963
rhand -17.1291 -2.87667
rfingers 7.12502
rthumb 9.11082 -32.6599
lclavicle 1.24271e-014 2.42517e-014
lhumerus -26.2461 1.41015 76.2367
lradius 50.88
lwrist 17.6408
lhand -19.3073 -3.83581
lfingers 7.12502
lthumb 7.00851 26.0282
rfemur -25.6329 -2.78649 22.2705
rtibia 38.8986
rfoot -5.98104 -17.5284
rtoes 0.953558
lfemur 6.95123 -3.7143 -15.6619
ltibia 53.365
lfoot 26.2841 -3.47323
ltoes -7.87024
357
root 1.75448 17.5263 24.8064 -2.5038 9.32558 -1.66493
lowerback 5.32352 -4.37717 -5.25384
upperback 0.220113 -6.08186 3.00341
thorax -1.87267 -2.99284 6.43928
lowerneck -18.8616 3.53527 12.8776
upperneck 20.3819 3.29466 -9.1333
head 9.96794 1.48848 -4.92674
rclavicle -4.59783e-014 4.37326e-015
rhumerus -51.5081 -29.6917 -55.1826
rradius 11.5155
rwrist 24.788
rhand -16.9368 -2.66184
rfingers 7.12502
rthumb 9.29634 -32.4369
lclavicle -4.59783e-014 4.37326e-015
lhumerus -26.7012 1.87074 76.4979
lradius 50.5074
lwrist 17.8267
lhand -19.3779 -3.66641
lfingers 7.12502
lthumb 6.94037 26.1998
rfemur -24.259 -2.59258 23.1583
rtibia 38.8392
rfoot -6.74409 -17.7861
rtoes 1.49994
lfemur 4.99255 -3.4278 -14.8253
ltibia 56.4675
lfoot 24.4062 -2.52295
ltoes -7.43581
358
root 1.75024 17.5563 25.1034 -2.68162 9.21211 -2.29102
lowerback 5.1808 -4.46365 -5.18455
upperback 0.376175 -6.18036 3.35907
thorax -1.58363 -3.05947 6.75357
lowerneck -18.8343 3.75198 13.2044
upperneck 20.3419 3.54283 -9.30031
head 9.99066 1.61019 -5.00634
rclavicle 1.50952e-015 -3.97569e-015
rhumerus -49.1284 -28.1351 -57.8127
rradius 11.774
rwrist 23.1038
rhand -16.8473 -2.40691
rfingers 7.12502
rthumb 9.38272 -32.1781
lclavicle 1.50952e-015 -3.97569e-015
lhumerus -27.1799 2.65678 76.6097
lradius 49.9701
lwrist 17.8923
lhand -19.4242 -3.55475
lfingers 7.12502
lthumb 6.89568 26.3129
rfemur -22.8975 -2.30297 24.034
rtibia 38.5962
rfoot -7.5262 -18.1644
rtoes 1.75617
lfemur 2.90088 -3.16274 -13.9832
ltibia 59.3103
lfoot 22.035 -1.29564
ltoes -6.86684
359
root 1.7438 17.5897 25.3989 -2.75651 9.10783 -2.98004
lowerback 4.94483 -4.42253 -4.83859
upperback 0.443413 -6.09235 3.63895
thorax -1.40063 -3.02696 6.82361
lowerneck -18.8535 3.76565 13.2699
upperneck 20.3886 3.5267 -9.23884
head 10.0094 1.61527 -4.99845
rclavicle 5.56162e-014 -3.45885e-014
rhumerus -47.2074 -26.8105 -60.0276
rradius 12.0945
rwrist 21.5338
rhand -16.8182 -2.20428
rfingers 7.12502
rthumb 9.41073 -31.9742
lclavicle 5.56162e-014 -3.45885e-014
lhumerus -27.5495 2.97754 76.8698
lradius 49.2109
lwrist 17.872
lhand -19.4444 -3.46519
lfingers 7.12502
lthumb 6.87617 26.4031
rfemur -21.582 -1.84957 24.9785
rtibia 38.1872
rfoot -8.25255 -18.6474
rtoes 1.8217
lfemur 0.67684 -2.85574 -13.0543
ltibia 61.8656
lfoot 19.4132 0.117167
ltoes -6.45176
360
root 1.73889 17.625 25.6908 -2.73607 9.0115 -3.62541
lowerback 4.67281 -4.37575 -4.50843
upperback 0.418574 -5.99959 3.89592
thorax -1.29459 -2.9861 6.8809
lowerneck -18.7639 3.7368 13.3052
upperneck 20.4649 3.46912 -9.14786
head 10.0119 1.60496 -4.98126
rclavicle -1.49896e-014 -1.59028e-014
rhumerus -45.4807 -25.4933 -61.9921
rradius 12.4138
rwrist 20.2526
rhand -16.9013 -2.06119
rfingers 7.12502
rthumb 9.33055 -31.8347
lclavicle -1.49896e-014 -1.59028e-014
lhumerus -27.955 3.25409 77.1458
lradius 48.2559
lwrist 17.7248
lhand -19.418 -3.42677
lfingers 7.12502
lthumb 6.90166 26.4407
rfemur -20.3128 -1.38914 25.8687
rtibia 37.6501
rfoot -8.91029 -19.0909
rtoes 1.74231
lfemur -1.63941 -2.53166 -12.2028
ltibia 64.0954
lfoot 16.8434 1.69782
ltoes -5.97879
